<svg xmlns="http://www.w3.org/2000/svg" width="48" height="48" viewBox="0 0 48 48"><defs><style>.a{fill:none;}.b{fill:#fff;}</style></defs><g transform="translate(-642 -324.186)"><rect class="a" width="48" height="48" transform="translate(642 324.186)"/><path class="b" d="M8.372,21.633a15.439,15.439,0,0,0,15.54-15.54c0-.234,0-.469-.011-.7a11.441,11.441,0,0,0,2.727-2.823,11.1,11.1,0,0,1-3.142.863,5.458,5.458,0,0,0,2.4-3.025A10.747,10.747,0,0,1,22.41,1.726,5.468,5.468,0,0,0,13.1,6.711,15.534,15.534,0,0,1,1.853,1,5.453,5.453,0,0,0,3.547,8.288a5.354,5.354,0,0,1-2.482-.682V7.67a5.471,5.471,0,0,0,4.388,5.357,5.386,5.386,0,0,1-2.471.1,5.465,5.465,0,0,0,5.1,3.792A10.969,10.969,0,0,1,1.3,19.258c-.437,0-.873-.032-1.3-.075a15.454,15.454,0,0,0,8.372,2.45" transform="translate(654.128 337.001)"/></g></svg>