<svg xmlns="http://www.w3.org/2000/svg" width="48" height="48" viewBox="0 0 48 48"><defs><style>.a{fill:none;}.b{fill:#fff;}</style></defs><g transform="translate(-759.258 -324.186)"><g transform="translate(759.258 324.186)"><rect class="a" width="48" height="48"/></g><g transform="translate(771.958 336.514)"><path class="b" d="M15.917,6.212c3.161,0,3.535.012,4.784.069a6.551,6.551,0,0,1,2.2.408,3.92,3.92,0,0,1,2.247,2.247,6.549,6.549,0,0,1,.408,2.2c.057,1.248.069,1.623.069,4.784s-.012,3.535-.069,4.784a6.552,6.552,0,0,1-.408,2.2A3.92,3.92,0,0,1,22.9,25.145a6.549,6.549,0,0,1-2.2.408c-1.248.057-1.622.069-4.784.069s-3.535-.012-4.784-.069a6.552,6.552,0,0,1-2.2-.408A3.92,3.92,0,0,1,6.688,22.9a6.549,6.549,0,0,1-.408-2.2c-.057-1.248-.069-1.623-.069-4.784s.012-3.535.069-4.784a6.551,6.551,0,0,1,.408-2.2A3.921,3.921,0,0,1,8.935,6.689a6.549,6.549,0,0,1,2.2-.408c1.248-.057,1.623-.069,4.784-.069m0-2.133c-3.215,0-3.618.014-4.881.071a8.689,8.689,0,0,0-2.874.55A6.055,6.055,0,0,0,4.7,8.163a8.69,8.69,0,0,0-.55,2.874c-.058,1.262-.071,1.666-.071,4.881s.014,3.618.071,4.881a8.688,8.688,0,0,0,.55,2.874,6.053,6.053,0,0,0,3.462,3.462,8.689,8.689,0,0,0,2.874.55c1.263.058,1.666.071,4.881.071s3.618-.014,4.881-.071a8.689,8.689,0,0,0,2.874-.55,6.053,6.053,0,0,0,3.462-3.462,8.689,8.689,0,0,0,.55-2.874c.058-1.263.071-1.666.071-4.881s-.014-3.618-.071-4.881a8.689,8.689,0,0,0-.55-2.874A6.055,6.055,0,0,0,23.671,4.7,8.691,8.691,0,0,0,20.8,4.15c-1.262-.058-1.666-.071-4.881-.071h0Z" transform="translate(-4.079 -4.079)"/><path class="b" d="M132.714,126.635a6.079,6.079,0,1,0,6.079,6.079A6.079,6.079,0,0,0,132.714,126.635Zm0,10.025a3.946,3.946,0,1,1,3.946-3.946,3.946,3.946,0,0,1-3.946,3.946Z" transform="translate(-120.876 -120.876)"/><ellipse class="b" cx="1.421" cy="1.421" rx="1.421" ry="1.421" transform="translate(16.736 4.098)"/></g></g></svg>