<svg xmlns="http://www.w3.org/2000/svg" xmlns:xlink="http://www.w3.org/1999/xlink" width="64" height="64" viewBox="0 0 64 64">
  <defs>
    <clipPath id="clip-path">
      <rect width="64" height="64" fill="none"/>
    </clipPath>
  </defs>
  <g id="icon-orange-global-64x64" clip-path="url(#clip-path)">
    <rect id="Rectangle_306" data-name="Rectangle 306" width="64" height="64" fill="none"/>
    <g id="np_globe_593867_000000" transform="translate(11 6)">
      <path id="Path_446" data-name="Path 446" d="M55.271,18.635C52.587,11.266,44.223,3.689,31.393,7.492h0A18.61,18.61,0,0,0,20.25,31.37c2.684,7.358,11.058,14.967,23.878,11.143h0A18.631,18.631,0,0,0,55.271,18.635ZM53.149,18.1l-6.367,2.653A34.8,34.8,0,0,0,42.536,12.8l5.306-1.592A16.042,16.042,0,0,1,53.149,18.1ZM35.107,15.982l5.837-2.122a29.225,29.225,0,0,1,4.245,7.429l-6.9,2.653Zm4.776,18.041-5.837,2.122A29.225,29.225,0,0,1,29.8,28.717l7.429-2.653ZM45.72,10.145l-4.245,1.592A16.036,16.036,0,0,0,36.7,8.023C41.425,7.888,43.222,8.736,45.72,10.145Zm-5.837,2.122L34.577,14.39,32.454,8.553C32.672,8.522,35.7,8.05,39.883,12.268ZM30.862,9.084l2.122,5.837-5.306,1.592C27.71,16.067,27.971,10.825,30.862,9.084Zm2.653,7.429L36.7,24.472,29.27,27.125a29.653,29.653,0,0,1-1.592-8.49Zm-6.367-5.306a15.362,15.362,0,0,0-1.061,5.837l-4.245,1.592A16.36,16.36,0,0,1,27.148,11.206Zm-5.837,9.551,4.776-1.592a31.252,31.252,0,0,0,1.592,8.49l-6.367,2.122A16.974,16.974,0,0,1,21.311,20.758Zm.531,10.612,6.367-2.122a30.825,30.825,0,0,0,4.245,7.429l-4.776,1.592A17.306,17.306,0,0,1,21.842,31.37Zm7.429,8.49,4.245-1.592a15.908,15.908,0,0,0,4.776,3.714A17.179,17.179,0,0,1,29.27,39.86Zm6.367-2.653,4.776-1.592,2.122,5.306C42.329,40.942,39.1,41,35.638,37.207Zm8.49,3.184-2.122-5.306,5.306-2.122C47.281,33.408,46.968,38.774,44.128,40.391Zm-2.653-6.9-2.653-7.959,6.9-2.653a29.653,29.653,0,0,1,1.592,8.49Zm6.367,4.776A17.1,17.1,0,0,0,48.9,32.431l4.776-1.592A17.537,17.537,0,0,1,47.842,38.268Zm6.367-9.551L48.9,30.84a31.252,31.252,0,0,0-1.592-8.49L53.679,19.7A17.344,17.344,0,0,1,54.21,28.717Z" transform="translate(-14.631 -3.247)" fill="#fbb042"/>
      <path id="Path_447" data-name="Path 447" d="M34.855,44.963a23.278,23.278,0,0,0,6.9-1.592l-1.061-1.592a21.149,21.149,0,0,1-14.327-39.8L25.834.391a22.768,22.768,0,0,0-13.8,29.184A23.089,23.089,0,0,0,32.733,44.963v3.184H25.3v4.776h16.98V48.147H34.855Zm5.837,4.776V51.33H26.9V49.739Z" transform="translate(-10.664 -0.391)" fill="#fbb042"/>
    </g>
  </g>
</svg>
