<svg xmlns="http://www.w3.org/2000/svg" xmlns:xlink="http://www.w3.org/1999/xlink" width="64" height="64" viewBox="0 0 64 64">
  <defs>
    <clipPath id="clip-path">
      <rect width="64" height="64" fill="none"/>
    </clipPath>
  </defs>
  <g id="icon-sky-blue-calendar-64x64" clip-path="url(#clip-path)">
    <rect id="Rectangle_294" data-name="Rectangle 294" width="64" height="64" fill="none"/>
    <path id="np_calendar_1725409_000000" d="M14.774,3a1.161,1.161,0,0,0-1.161,1.161V10.73a4.065,4.065,0,1,0,2.323,0V4.161A1.161,1.161,0,0,0,14.774,3ZM39.162,3A1.161,1.161,0,0,0,38,4.161V10.73a4.065,4.065,0,1,0,2.323,0V4.161A1.161,1.161,0,0,0,39.162,3ZM7.825,6.484A5.84,5.84,0,0,0,2,12.308v34.8a5.84,5.84,0,0,0,5.825,5.825H40.414A9.289,9.289,0,1,0,51.936,39.672V12.308a5.84,5.84,0,0,0-5.825-5.825H42.646a1.207,1.207,0,0,0-1.177,1.161,1.207,1.207,0,0,0,1.177,1.161h3.466a3.473,3.473,0,0,1,3.5,3.5V20.42H4.323V12.309a3.473,3.473,0,0,1,3.5-3.5h3.466a1.207,1.207,0,0,0,1.177-1.161,1.207,1.207,0,0,0-1.177-1.161Zm10.434,0a1.161,1.161,0,0,0,0,2.323h17.42a1.161,1.161,0,1,0,0-2.323Zm-3.484,6.387a1.742,1.742,0,1,1-1.742,1.742A1.725,1.725,0,0,1,14.774,12.871Zm24.388,0a1.742,1.742,0,1,1-1.742,1.742A1.725,1.725,0,0,1,39.162,12.871ZM4.323,22.742H49.614V39.091a9.16,9.16,0,0,0-10.452,9.2,9.237,9.237,0,0,0,.308,2.323H7.825a3.473,3.473,0,0,1-3.5-3.5Zm44.13,18.581a6.968,6.968,0,1,1-6.968,6.968A6.949,6.949,0,0,1,48.452,41.323Zm0,1.161a1.161,1.161,0,0,0-1.161,1.161v4.645a1.161,1.161,0,0,0,1.161,1.161h4.065a1.161,1.161,0,1,0,0-2.323h-2.9V43.646A1.161,1.161,0,0,0,48.452,42.485Z" transform="translate(3.197 2.526)" fill="#3bbed9"/>
  </g>
</svg>
