<svg xmlns="http://www.w3.org/2000/svg" xmlns:xlink="http://www.w3.org/1999/xlink" width="64" height="64" viewBox="0 0 64 64">
  <defs>
    <clipPath id="clip-path">
      <rect width="64" height="64" fill="none"/>
    </clipPath>
  </defs>
  <g id="icon-pink-email-64x64" clip-path="url(#clip-path)">
    <rect id="Rectangle_252" data-name="Rectangle 252" width="64" height="64" fill="none"/>
    <g id="Group_746" data-name="Group 746" transform="translate(3.197 104.866)">
      <path id="Path_1158" data-name="Path 1158" d="M8.673-47.209h39.4a4.678,4.678,0,0,0,4.674-4.678V-76.91a1.323,1.323,0,0,0-.472-1.012l-6.523-5.512v-9.607a3.71,3.71,0,0,0-1.087-2.623,3.71,3.71,0,0,0-2.623-1.087H14.964a3.709,3.709,0,0,0-3.709,3.709v9.406L4.471-77.922A1.323,1.323,0,0,0,4-76.91v25.022a4.678,4.678,0,0,0,4.674,4.678Zm39.4-2.65H8.673a2.028,2.028,0,0,1-2.024-2.029V-74.382L21.752-63.7l-10.72,8.2a1.324,1.324,0,0,0-.265,1.855,1.326,1.326,0,0,0,1.855.265l11.4-8.723,3.709,2.65a1.325,1.325,0,0,0,1.532,0l3.709-2.65,11.4,8.707a1.325,1.325,0,0,0,1.855-.265,1.326,1.326,0,0,0-.265-1.855L35.265-63.7,50.1-74.192v22.311a2.027,2.027,0,0,1-2.024,2.022Zm1.288-27.057-3.6,2.548v-5.6Zm-34.4-17.179H42.052a1.059,1.059,0,0,1,.749.311,1.059,1.059,0,0,1,.31.749v20.528l-14.6,10.34-14.6-10.34V-93.041a1.06,1.06,0,0,1,1.056-1.054ZM11.255-74.366,7.5-77.016l3.751-3.18Zm17.121,5.395h.339A1.326,1.326,0,0,0,30.04-70.3a1.325,1.325,0,0,0-1.325-1.325h-.339A8.441,8.441,0,0,1,22.4-74.1a8.44,8.44,0,0,1-2.476-5.972A8.447,8.447,0,0,1,22.4-86.043a8.447,8.447,0,0,1,5.972-2.474,8.447,8.447,0,0,1,5.972,2.474,8.448,8.448,0,0,1,2.476,5.974v2.262a1.478,1.478,0,0,1-1.476,1.389,1.477,1.477,0,0,1-1.476-1.389v-2.262a5.515,5.515,0,0,0-4.246-5.4,5.512,5.512,0,0,0-6.212,2.931,5.513,5.513,0,0,0,1.47,6.709,5.511,5.511,0,0,0,6.868.068,4.121,4.121,0,0,0,4.653,1.973,4.125,4.125,0,0,0,3.068-4.018v-2.262a11.1,11.1,0,0,0-3.25-7.848,11.1,11.1,0,0,0-7.848-3.25,11.1,11.1,0,0,0-7.848,3.25,11.1,11.1,0,0,0-3.25,7.848,11.1,11.1,0,0,0,3.25,7.845,11.1,11.1,0,0,0,7.848,3.252Zm0-8.251a2.846,2.846,0,0,1-2.629-1.757,2.845,2.845,0,0,1,.617-3.1,2.845,2.845,0,0,1,3.1-.617,2.846,2.846,0,0,1,1.757,2.629,2.847,2.847,0,0,1-2.846,2.846Z" transform="translate(0 0)" fill="#df5fa3"/>
    </g>
  </g>
</svg>
