<svg xmlns="http://www.w3.org/2000/svg" xmlns:xlink="http://www.w3.org/1999/xlink" width="48" height="48" viewBox="0 0 48 48">
  <defs>
    <clipPath id="clip-path">
      <rect width="48" height="48" fill="none"/>
    </clipPath>
  </defs>
  <g id="icon-orange-link-48x48" clip-path="url(#clip-path)">
    <circle id="Ellipse_2" data-name="Ellipse 2" cx="24" cy="24" r="24" fill="#fbb042" opacity="0.15"/>
    <path id="icon-orange-link-48x48-2" data-name="icon-orange-link-48x48" d="M14,0A14,14,0,1,1,0,14,14,14,0,0,1,14,0Zm4.712,12.783a.824.824,0,0,0,1.166,1.164l.582-.582a4.117,4.117,0,0,0-5.822-5.822l-2.606,2.6a4.13,4.13,0,0,0,0,5.822A.823.823,0,0,0,13.2,14.8a2.479,2.479,0,0,1,0-3.5l2.6-2.6A2.471,2.471,0,1,1,19.3,12.2ZM9.287,15.218a.824.824,0,0,0-1.164-1.166l-.582.584a4.117,4.117,0,1,0,5.822,5.822l2.6-2.6a4.131,4.131,0,0,0,0-5.825A.824.824,0,0,0,14.8,13.2a2.477,2.477,0,0,1,0,3.492L12.2,19.295A2.471,2.471,0,1,1,8.7,15.8l.582-.582Z" transform="translate(10 10)" fill="#fbb042" fill-rule="evenodd"/>
  </g>
</svg>
