<svg xmlns="http://www.w3.org/2000/svg" xmlns:xlink="http://www.w3.org/1999/xlink" width="48" height="48" viewBox="0 0 48 48">
  <defs>
    <clipPath id="clip-path">
      <rect width="48" height="48" fill="none"/>
    </clipPath>
  </defs>
  <g id="icon-orange-resources-48x48" clip-path="url(#clip-path)">
    <circle id="Ellipse_2" data-name="Ellipse 2" cx="24" cy="24" r="24" fill="#fbb042" opacity="0.15"/>
    <path id="np_article_55594_000000" d="M43.013,20.121H26.566A1.565,1.565,0,0,0,25,21.687V42.05a1.565,1.565,0,0,0,1.566,1.566H43.013a1.565,1.565,0,0,0,1.566-1.566V21.687a1.565,1.565,0,0,0-1.566-1.566ZM26.944,23.43a.392.392,0,0,1,.392-.392h7.827a.392.392,0,0,1,.392.392V24.6a.392.392,0,0,1-.392.392H27.336a.392.392,0,0,1-.392-.392Zm11.746,16.9a.391.391,0,0,1-.392.392H27.336a.392.392,0,0,1-.392-.392V39.151a.391.391,0,0,1,.392-.392H38.3a.39.39,0,0,1,.392.392Zm3.917-3.936a.391.391,0,0,1-.392.392H27.336a.392.392,0,0,1-.392-.392V35.215a.391.391,0,0,1,.392-.392h14.88a.39.39,0,0,1,.392.392Zm0-3.936a.391.391,0,0,1-.392.392H27.336a.392.392,0,0,1-.392-.392V31.279a.392.392,0,0,1,.392-.392h14.88a.391.391,0,0,1,.392.392Zm0-3.934a.391.391,0,0,1-.392.392H27.336a.392.392,0,0,1-.392-.392V27.345a.392.392,0,0,1,.392-.392h14.88a.391.391,0,0,1,.392.392Z" transform="translate(-11 -9.121)" fill="#fbb042"/>
  </g>
</svg>
