<svg xmlns="http://www.w3.org/2000/svg" xmlns:xlink="http://www.w3.org/1999/xlink" width="64" height="64" viewBox="0 0 64 64">
  <defs>
    <clipPath id="clip-path">
      <rect width="64" height="64" fill="none"/>
    </clipPath>
  </defs>
  <g id="icon-purple-profile-options-64x64" clip-path="url(#clip-path)">
    <rect id="Rectangle_250" data-name="Rectangle 250" width="64" height="64" fill="none"/>
    <rect id="Rectangle_275" data-name="Rectangle 275" width="64" height="64" fill="none"/>
    <g id="Group_795" data-name="Group 795" transform="translate(-142 -1341)">
      <rect id="Rectangle_263" data-name="Rectangle 263" width="7.584" height="1.881" transform="matrix(0.868, -0.496, 0.496, 0.868, 160.364, 1356.192)" fill="#784794"/>
      <rect id="Rectangle_264" data-name="Rectangle 264" width="1.881" height="11.288" transform="translate(153.305 1367.356)" fill="#784794"/>
      <rect id="Rectangle_265" data-name="Rectangle 265" width="1.881" height="7.584" transform="matrix(0.496, -0.868, 0.868, 0.496, 160.364, 1389.808)" fill="#784794"/>
      <rect id="Rectangle_266" data-name="Rectangle 266" width="7.584" height="1.881" transform="matrix(0.868, -0.496, 0.496, 0.868, 180.118, 1391.938)" fill="#784794"/>
      <rect id="Rectangle_267" data-name="Rectangle 267" width="1.881" height="11.288" transform="translate(192.814 1367.356)" fill="#784794"/>
      <rect id="Rectangle_268" data-name="Rectangle 268" width="1.881" height="7.584" transform="matrix(0.496, -0.868, 0.868, 0.496, 180.118, 1354.062)" fill="#784794"/>
      <path id="Path_1193" data-name="Path 1193" d="M955.249,385.042a4.763,4.763,0,0,0,.514.154,4.845,4.845,0,0,0,1.881,0,4.755,4.755,0,0,0,.514-.154,4.607,4.607,0,0,0,3.164-3.507,4.4,4.4,0,0,0,.085-.816v-2.151a4.612,4.612,0,0,0-3.763-4.476,4.845,4.845,0,0,0-1.881,0A4.612,4.612,0,0,0,952,378.568v2.151a4.4,4.4,0,0,0,.085.816A4.607,4.607,0,0,0,955.249,385.042Zm.514-9a2.77,2.77,0,0,1,1.881,0,2.7,2.7,0,0,1,1.881,2.522v2.151a2.7,2.7,0,0,1-1.881,2.522,2.755,2.755,0,0,1-1.881,0,2.7,2.7,0,0,1-1.881-2.522v-2.151A2.7,2.7,0,0,1,955.763,376.046Z" transform="translate(-782.703 987.712)" fill="#784794"/>
      <path id="Path_1194" data-name="Path 1194" d="M957.892,388.062c-.187-.014-.367-.024-.545-.034-.33-.017-.65-.028-.941-.028s-.61.011-.941.028c-.178.009-.357.02-.545.034-3.321.261-7.843,1.417-7.914,4.57,0,.024-.008.046-.008.072v1.881h1.881V392.7c0-1.664,3.569-2.623,6.585-2.792.321-.018.638-.03.941-.03s.62.012.941.03c3.016.169,6.585,1.128,6.585,2.792v1.881h1.881V392.7c0-.025-.007-.047-.008-.072C965.736,389.479,961.213,388.323,957.892,388.062Z" transform="translate(-782.407 986.881)" fill="#784794"/>
      <path id="Path_1195" data-name="Path 1195" d="M975.212,391.746a4.661,4.661,0,0,0-2.964,1.082l-2.511-1.45a15.818,15.818,0,0,0,0-14.315l2.511-1.45a4.661,4.661,0,0,0,2.964,1.082,4.7,4.7,0,1,0-4.7-4.7,4.637,4.637,0,0,0,.54,2.141l-2.246,1.3a15.982,15.982,0,0,0-12.4-7.153v-2.965a4.7,4.7,0,1,0-1.881,0v2.965a15.978,15.978,0,0,0-12.4,7.153l-2.246-1.3a4.637,4.637,0,0,0,.54-2.141,4.7,4.7,0,1,0-4.7,4.7,4.661,4.661,0,0,0,2.964-1.082l2.511,1.45a15.819,15.819,0,0,0,0,14.315l-2.511,1.45a4.661,4.661,0,0,0-2.964-1.082,4.7,4.7,0,1,0,4.7,4.7,4.637,4.637,0,0,0-.54-2.141l2.246-1.3a15.978,15.978,0,0,0,12.4,7.153v2.965a4.7,4.7,0,1,0,1.881,0v-2.965a15.978,15.978,0,0,0,12.4-7.153l2.246,1.3a4.637,4.637,0,0,0-.54,2.141,4.7,4.7,0,1,0,4.7-4.7Zm0-22.577a2.822,2.822,0,1,1-2.822,2.822A2.826,2.826,0,0,1,975.212,369.17Zm-39.509,0a2.822,2.822,0,1,1-2.822,2.822A2.826,2.826,0,0,1,935.7,369.17Zm0,30.1a2.822,2.822,0,1,1,2.822-2.822A2.826,2.826,0,0,1,935.7,399.272Zm20.7-.989c-.312.021-.623.048-.941.048s-.628-.027-.941-.048a14.1,14.1,0,0,1-10.777-6.211,14.259,14.259,0,0,1-.931-1.635,13.947,13.947,0,0,1,0-12.432,14.256,14.256,0,0,1,.931-1.635,14.1,14.1,0,0,1,10.777-6.211c.312-.021.623-.048.941-.048s.628.027.941.048a14.093,14.093,0,0,1,0,28.125Zm-.941-40.4a2.822,2.822,0,1,1-2.822,2.822A2.826,2.826,0,0,1,955.458,357.881Zm0,52.679a2.822,2.822,0,1,1,2.822-2.822A2.826,2.826,0,0,1,955.458,410.56Zm19.755-11.288a2.822,2.822,0,1,1,2.822-2.822A2.826,2.826,0,0,1,975.212,399.272Z" transform="translate(-781.458 988.779)" fill="#784794"/>
    </g>
  </g>
</svg>
