<svg xmlns="http://www.w3.org/2000/svg" xmlns:xlink="http://www.w3.org/1999/xlink" width="64" height="64" viewBox="0 0 64 64">
  <defs>
    <clipPath id="clip-path">
      <rect width="64" height="64" fill="none"/>
    </clipPath>
  </defs>
  <g id="icon-orange-circle-options-64x64" clip-path="url(#clip-path)">
    <rect id="Rectangle_278" data-name="Rectangle 278" width="64" height="64" fill="none"/>
    <g id="Group_798" data-name="Group 798" transform="translate(-362 -1341)">
      <path id="Path_1206" data-name="Path 1206" d="M1259.805,481.667l-1.724.609a17.247,17.247,0,0,0,3.435,5.789l1.362-1.219A15.424,15.424,0,0,1,1259.805,481.667Z" transform="translate(-880.127 886.872)" fill="#fbb042"/>
      <path id="Path_1207" data-name="Path 1207" d="M1264.386,490.9a17.233,17.233,0,0,0,5.8,2.944l.506-1.756a15.449,15.449,0,0,1-5.187-2.634Z" transform="translate(-880.671 886.201)" fill="#fbb042"/>
      <path id="Path_1208" data-name="Path 1208" d="M1283.535,492.87l-.813-1.637a15.383,15.383,0,0,1-6.9,1.615,15.651,15.651,0,0,1-1.726-.1l-.2,1.817a17.533,17.533,0,0,0,1.929.106A17.185,17.185,0,0,0,1283.535,492.87Z" transform="translate(-881.489 886.048)" fill="#fbb042"/>
      <path id="Path_1209" data-name="Path 1209" d="M1286.389,488.868l1.117,1.446a17.43,17.43,0,0,0,5.39-6.992l-1.683-.711A15.618,15.618,0,0,1,1286.389,488.868Z" transform="translate(-882.567 886.791)" fill="#fbb042"/>
      <path id="Path_1210" data-name="Path 1210" d="M1292.964,475.636a15.6,15.6,0,0,1-.386,3.452l1.783.406a17.52,17.52,0,0,0,0-7.718l-1.783.406A15.618,15.618,0,0,1,1292.964,475.636Z" transform="translate(-883.1 887.725)" fill="#fbb042"/>
      <path id="Path_1211" data-name="Path 1211" d="M1293.456,469.148a17.265,17.265,0,0,0-3.855-6.288l-1.321,1.264a15.436,15.436,0,0,1,3.451,5.626Z" transform="translate(-882.729 888.493)" fill="#fbb042"/>
      <path id="Path_1212" data-name="Path 1212" d="M1286.939,460.661a17.171,17.171,0,0,0-6.749-3.188l-.406,1.781a15.368,15.368,0,0,1,6.036,2.853Z" transform="translate(-881.997 888.957)" fill="#fbb042"/>
      <path id="Path_1213" data-name="Path 1213" d="M1277.182,458.923l.2-1.818a17.582,17.582,0,0,0-7.715.883l.609,1.724A15.694,15.694,0,0,1,1277.182,458.923Z" transform="translate(-881.126 888.998)" fill="#fbb042"/>
      <path id="Path_1214" data-name="Path 1214" d="M1266.872,461.124l-.916-1.581a17.537,17.537,0,0,0-5.756,5.391l1.519,1.018A15.706,15.706,0,0,1,1266.872,461.124Z" transform="translate(-880.31 888.779)" fill="#fbb042"/>
      <path id="Path_1215" data-name="Path 1215" d="M1260.046,469.323l-1.683-.713a17.264,17.264,0,0,0-1.363,6.753h1.828A15.419,15.419,0,0,1,1260.046,469.323Z" transform="translate(-880.034 887.998)" fill="#fbb042"/>
      <path id="Path_1216" data-name="Path 1216" d="M1293.025,479.923l-1.016,1.519a15.526,15.526,0,1,1-17.711,25.5,17.3,17.3,0,0,0,5.427-12.577H1277.9a15.48,15.48,0,0,1-5.026,11.408,15.48,15.48,0,0,1-5.026-11.408h-1.828a17.3,17.3,0,0,0,5.427,12.577,15.518,15.518,0,1,1,5.234-18.618l1.683-.711a17.4,17.4,0,1,0-5.491,20.541,17.351,17.351,0,1,0,20.153-28.228Z" transform="translate(-879 887.275)" fill="#fbb042"/>
      <path id="Path_1217" data-name="Path 1217" d="M1278.415,480.906a15.726,15.726,0,0,1,11.217-1.692l.4-1.783a17.574,17.574,0,0,0-12.537,1.894Z" transform="translate(-881.801 887.274)" fill="#fbb042"/>
      <path id="Path_1218" data-name="Path 1218" d="M1273.912,484.552l-1.362-1.219a17.331,17.331,0,0,0-3.059,4.823l1.683.711A15.5,15.5,0,0,1,1273.912,484.552Z" transform="translate(-881.11 886.729)" fill="#fbb042"/>
      <path id="Path_1219" data-name="Path 1219" d="M1250.828,496H1249a13.723,13.723,0,0,0,13.707,13.707V507.88A11.893,11.893,0,0,1,1250.828,496Z" transform="translate(-879.345 885.637)" fill="#fbb042"/>
    </g>
  </g>
</svg>
