<svg xmlns="http://www.w3.org/2000/svg" xmlns:xlink="http://www.w3.org/1999/xlink" width="48" height="48" viewBox="0 0 48 48">
  <defs>
    <clipPath id="clip-path">
      <rect width="48" height="48" fill="none"/>
    </clipPath>
  </defs>
  <g id="icon-green-event-48x48" clip-path="url(#clip-path)">
    <circle id="Ellipse_17" data-name="Ellipse 17" cx="24" cy="24" r="24" fill="#01ba7f" opacity="0.15"/>
    <g id="Group_762" data-name="Group 762" transform="translate(2.898 104.088)">
      <path id="Path_1189" data-name="Path 1189" d="M31.736-90.874H29.111v-1.912a.714.714,0,0,0-.209-.505A.714.714,0,0,0,28.4-93.5H25.286a.714.714,0,0,0-.714.714v1.912H16.979v-1.912a.714.714,0,0,0-.209-.505.714.714,0,0,0-.505-.209H13.155a.714.714,0,0,0-.714.714v1.912H9.815a.714.714,0,0,0-.714.714V-69.38a.714.714,0,0,0,.209.505.714.714,0,0,0,.505.209H31.737a.714.714,0,0,0,.505-.209.714.714,0,0,0,.209-.505V-90.161a.711.711,0,0,0-.209-.5.715.715,0,0,0-.505-.21ZM26-92.073h1.684v3.054H26Zm-12.131,0h1.684v3.054H13.868Zm10.99,15.215-1.513,1.513.371,2.112a.715.715,0,0,1-.288.683.717.717,0,0,1-.74.059l-1.912-1-1.884,1a.715.715,0,0,1-.739-.059.713.713,0,0,1-.288-.683l.342-2.112-1.541-1.484h0a.711.711,0,0,1-.19-.74.713.713,0,0,1,.589-.486l2.112-.314.942-1.912a.714.714,0,0,1,.642-.4.712.712,0,0,1,.642.4l.942,1.912,2.112.314a.715.715,0,0,1,.59.486.715.715,0,0,1-.19.74Zm6.165-7.936H10.529v-4.653h1.912v1.114a.713.713,0,0,0,.209.5.715.715,0,0,0,.505.21h3.111a.715.715,0,0,0,.505-.21.713.713,0,0,0,.209-.5v-1.114h7.593v1.114a.713.713,0,0,0,.209.5.715.715,0,0,0,.505.21H28.4a.715.715,0,0,0,.505-.21.713.713,0,0,0,.209-.5v-1.114h1.912Z" fill="#01ba7f"/>
    </g>
  </g>
</svg>
